<?xml version="1.0" standalone="no"?>
<!DOCTYPE svg PUBLIC "-//W3C//DTD SVG 20010904//EN"
 "http://www.w3.org/TR/2001/REC-SVG-20010904/DTD/svg10.dtd">
<svg version="1.0" xmlns="http://www.w3.org/2000/svg"
 width="260.000000pt" height="260.000000pt" viewBox="0 0 260.000000 260.000000"
 preserveAspectRatio="xMidYMid meet">
<metadata>
Created by potrace 1.14, written by Peter Selinger 2001-2017
</metadata>
<g transform="translate(0.000000,260.000000) scale(0.100000,-0.100000)"
fill="#000000" stroke="none">
<path d="M0 1300 l0 -1300 1300 0 1300 0 0 1300 0 1300 -1300 0 -1300 0 0
-1300z m1379 1220 c60 -8 181 -49 181 -62 0 -2 -11 -4 -25 -4 -38 -3 -75 -13
-75 -23 0 -4 11 -14 25 -21 30 -16 16 -30 -31 -30 -17 0 -52 -12 -77 -26 -42
-23 -46 -29 -52 -72 -3 -26 -13 -60 -22 -77 -9 -16 -17 -53 -17 -81 -1 -43 -7
-60 -35 -98 l-35 -46 -12 29 c-17 39 -25 42 -75 28 -61 -18 -71 -41 -64 -149
l6 -87 -25 12 c-27 13 -34 33 -14 39 10 4 10 17 1 64 -7 32 -10 75 -7 95 8 49
-5 54 -77 33 -60 -18 -61 -19 -54 -49 14 -70 17 -167 5 -175 -9 -5 -9 -12 -1
-26 6 -11 21 -51 34 -90 l23 -71 -29 -41 c-29 -40 -29 -41 -17 -109 21 -120
28 -134 103 -204 41 -39 67 -71 63 -78 -4 -6 -35 -11 -75 -11 -99 0 -161 -10
-161 -26 0 -8 4 -14 10 -14 5 0 17 -11 26 -25 20 -31 5 -55 -34 -55 -28 0 -92
44 -92 63 0 30 -73 86 -148 115 -80 30 -202 55 -227 46 -9 -4 -15 4 -17 28 -2
21 -8 32 -16 30 -24 -5 -8 32 18 45 21 10 44 7 140 -18 159 -42 186 -38 261
37 53 54 61 66 80 139 25 93 31 285 10 324 -7 12 -15 55 -18 94 -7 95 15 183
77 313 74 153 154 214 309 234 79 10 78 10 160 0z m14 -230 c7 1 23 7 37 15
14 8 50 14 80 14 53 -1 54 -1 21 -11 -24 -6 -31 -12 -22 -17 9 -6 -9 -16 -50
-30 -49 -16 -65 -18 -71 -8 -23 33 -28 48 -21 60 5 9 9 7 11 -5 2 -10 9 -18
15 -18z m-338 -560 c3 -5 1 -10 -4 -10 -6 0 -11 5 -11 10 0 6 2 10 4 10 3 0 8
-4 11 -10z"/>
<path d="M1040 2243 c-19 -7 -50 -34 -50 -43 0 -4 19 -17 43 -30 34 -18 47
-20 69 -11 19 7 26 15 22 26 -8 19 -1 19 37 0 34 -18 49 -13 49 18 0 17 -9 25
-40 35 -41 12 -103 15 -130 5z"/>
</g>
</svg>
